<?xml version="1.0" encoding="UTF-8" standalone="no"?>
<!-- Created with Inkscape (http://www.inkscape.org/) -->

<svg
   xmlns:dc="http://purl.org/dc/elements/1.1/"
   xmlns:cc="http://creativecommons.org/ns#"
   xmlns:rdf="http://www.w3.org/1999/02/22-rdf-syntax-ns#"
   xmlns:svg="http://www.w3.org/2000/svg"
   xmlns="http://www.w3.org/2000/svg"
   xmlns:sodipodi="http://sodipodi.sourceforge.net/DTD/sodipodi-0.dtd"
   xmlns:inkscape="http://www.inkscape.org/namespaces/inkscape"
   width="452.42859"
   height="174.98955"
   id="svg4629"
   version="1.1"
   inkscape:version="0.92.3 (2405546, 2018-03-11)"
   sodipodi:docname="unionFind2.svg"
   inkscape:export-filename="/home/tomasz/skrypty/skrypt_poc/skrypt_poc/ccl/images/unionFind2.svg.png"
   inkscape:export-xdpi="96"
   inkscape:export-ydpi="96">
  <defs
     id="defs4631" />
  <sodipodi:namedview
     id="base"
     pagecolor="#ffffff"
     bordercolor="#666666"
     borderopacity="1.0"
     inkscape:pageopacity="0.0"
     inkscape:pageshadow="2"
     inkscape:zoom="1.4"
     inkscape:cx="9.5134029"
     inkscape:cy="43.514634"
     inkscape:document-units="px"
     inkscape:current-layer="layer1"
     showgrid="true"
     fit-margin-top="0"
     fit-margin-left="0"
     fit-margin-right="0"
     fit-margin-bottom="0"
     inkscape:window-width="1853"
     inkscape:window-height="1025"
     inkscape:window-x="67"
     inkscape:window-y="27"
     inkscape:window-maximized="1">
    <inkscape:grid
       type="xygrid"
       id="grid4637"
       empspacing="5"
       visible="true"
       enabled="true"
       snapvisiblegridlinesonly="true"
       originx="-49.5"
       originy="-836.21191"
       spacingx="1"
       spacingy="1" />
  </sodipodi:namedview>
  <metadata
     id="metadata4634">
    <rdf:RDF>
      <cc:Work
         rdf:about="">
        <dc:format>image/svg+xml</dc:format>
        <dc:type
           rdf:resource="http://purl.org/dc/dcmitype/StillImage" />
        <dc:title />
      </cc:Work>
    </rdf:RDF>
  </metadata>
  <g
     inkscape:label="Layer 1"
     inkscape:groupmode="layer"
     id="layer1"
     transform="translate(-49.5,-41.160714)">
    <path
       sodipodi:type="arc"
       style="fill:none;stroke:#000000;stroke-width:1;stroke-miterlimit:4;stroke-opacity:1;stroke-dasharray:none;stroke-dashoffset:0"
       id="path4639"
       sodipodi:cx="70"
       sodipodi:cy="62.362183"
       sodipodi:rx="20"
       sodipodi:ry="20"
       d="m 90,62.362183 a 20,20 0 0 1 -20,20 20,20 0 0 1 -20,-20 20,20 0 0 1 20,-20 20,20 0 0 1 20,20 z" />
    <path
       transform="translate(136.66668,0.71428572)"
       sodipodi:type="arc"
       style="fill:none;stroke:#000000;stroke-width:1;stroke-miterlimit:4;stroke-opacity:1;stroke-dasharray:none;stroke-dashoffset:0"
       id="path4639-1"
       sodipodi:cx="70"
       sodipodi:cy="62.362183"
       sodipodi:rx="20"
       sodipodi:ry="20"
       d="m 90,62.362183 a 20,20 0 0 1 -20,20 20,20 0 0 1 -20,-20 20,20 0 0 1 20,-20 20,20 0 0 1 20,20 z" />
    <path
       transform="translate(273.33333,-0.71428574)"
       sodipodi:type="arc"
       style="fill:none;stroke:#000000;stroke-width:1;stroke-miterlimit:4;stroke-opacity:1;stroke-dasharray:none;stroke-dashoffset:0"
       id="path4639-13"
       sodipodi:cx="70"
       sodipodi:cy="62.362183"
       sodipodi:rx="20"
       sodipodi:ry="20"
       d="m 90,62.362183 a 20,20 0 0 1 -20,20 20,20 0 0 1 -20,-20 20,20 0 0 1 20,-20 20,20 0 0 1 20,20 z" />
    <path
       transform="translate(410.00002,0.71428573)"
       sodipodi:type="arc"
       style="fill:none;stroke:#000000;stroke-width:1;stroke-miterlimit:4;stroke-opacity:1;stroke-dasharray:none;stroke-dashoffset:0"
       id="path4639-8"
       sodipodi:cx="70"
       sodipodi:cy="62.362183"
       sodipodi:rx="20"
       sodipodi:ry="20"
       d="m 90,62.362183 a 20,20 0 0 1 -20,20 20,20 0 0 1 -20,-20 20,20 0 0 1 20,-20 20,20 0 0 1 20,20 z" />
    <path
       transform="translate(1.4285713,80.714276)"
       sodipodi:type="arc"
       style="fill:none;stroke:#000000;stroke-width:1;stroke-miterlimit:4;stroke-opacity:1;stroke-dasharray:none;stroke-dashoffset:0"
       id="path4639-7"
       sodipodi:cx="70"
       sodipodi:cy="62.362183"
       sodipodi:rx="20"
       sodipodi:ry="20"
       d="m 90,62.362183 a 20,20 0 0 1 -20,20 20,20 0 0 1 -20,-20 20,20 0 0 1 20,-20 20,20 0 0 1 20,20 z" />
    <path
       transform="translate(138.09525,81.428556)"
       sodipodi:type="arc"
       style="fill:none;stroke:#000000;stroke-width:1;stroke-miterlimit:4;stroke-opacity:1;stroke-dasharray:none;stroke-dashoffset:0"
       id="path4639-1-4"
       sodipodi:cx="70"
       sodipodi:cy="62.362183"
       sodipodi:rx="20"
       sodipodi:ry="20"
       d="m 90,62.362183 a 20,20 0 0 1 -20,20 20,20 0 0 1 -20,-20 20,20 0 0 1 20,-20 20,20 0 0 1 20,20 z" />
    <path
       transform="translate(274.7619,79.999986)"
       sodipodi:type="arc"
       style="fill:none;stroke:#000000;stroke-width:1;stroke-miterlimit:4;stroke-opacity:1;stroke-dasharray:none;stroke-dashoffset:0"
       id="path4639-13-2"
       sodipodi:cx="70"
       sodipodi:cy="62.362183"
       sodipodi:rx="20"
       sodipodi:ry="20"
       d="m 90,62.362183 a 20,20 0 0 1 -20,20 20,20 0 0 1 -20,-20 20,20 0 0 1 20,-20 20,20 0 0 1 20,20 z" />
    <path
       transform="translate(411.42859,81.428556)"
       sodipodi:type="arc"
       style="fill:none;stroke:#000000;stroke-width:1;stroke-miterlimit:4;stroke-opacity:1;stroke-dasharray:none;stroke-dashoffset:0"
       id="path4639-8-7"
       sodipodi:cx="70"
       sodipodi:cy="62.362183"
       sodipodi:rx="20"
       sodipodi:ry="20"
       d="m 90,62.362183 a 20,20 0 0 1 -20,20 20,20 0 0 1 -20,-20 20,20 0 0 1 20,-20 20,20 0 0 1 20,20 z" />
    <text
       xml:space="preserve"
       style="font-style:normal;font-weight:normal;line-height:0%;font-family:sans-serif;letter-spacing:0px;word-spacing:0px;fill:#000000;fill-opacity:1;stroke:none"
       x="65.666992"
       y="68.830933"
       id="text4700"><tspan
         sodipodi:role="line"
         id="tspan4702"
         x="65.666992"
         y="68.830933"
         style="font-size:18px;line-height:1.25;font-family:sans-serif">1</tspan></text>
    <text
       xml:space="preserve"
       style="font-style:normal;font-weight:normal;line-height:0%;font-family:sans-serif;letter-spacing:0px;word-spacing:0px;fill:#000000;fill-opacity:1;stroke:none"
       x="201.87225"
       y="69.545219"
       id="text4704"><tspan
         sodipodi:role="line"
         id="tspan4706"
         x="201.87225"
         y="69.545219"
         style="font-size:18px;line-height:1.25;font-family:sans-serif">2</tspan></text>
    <text
       xml:space="preserve"
       style="font-style:normal;font-weight:normal;line-height:0%;font-family:sans-serif;letter-spacing:0px;word-spacing:0px;fill:#000000;fill-opacity:1;stroke:none"
       x="338.35873"
       y="68.002388"
       id="text4708"><tspan
         sodipodi:role="line"
         id="tspan4710"
         x="338.35873"
         y="68.002388"
         style="font-size:18px;line-height:1.25;font-family:sans-serif">3</tspan></text>
    <text
       xml:space="preserve"
       style="font-style:normal;font-weight:normal;line-height:0%;font-family:sans-serif;letter-spacing:0px;word-spacing:0px;fill:#000000;fill-opacity:1;stroke:none"
       x="475.31546"
       y="69.518852"
       id="text4712"><tspan
         sodipodi:role="line"
         id="tspan4714"
         x="475.31546"
         y="69.518852"
         style="font-size:18px;line-height:1.25;font-family:sans-serif">4</tspan></text>
    <text
       xml:space="preserve"
       style="font-style:normal;font-weight:normal;line-height:0%;font-family:sans-serif;letter-spacing:0px;word-spacing:0px;fill:#000000;fill-opacity:1;stroke:none"
       x="66.410019"
       y="149.32109"
       id="text4716"><tspan
         sodipodi:role="line"
         id="tspan4718"
         x="66.410019"
         y="149.32109"
         style="font-size:18px;line-height:1.25;font-family:sans-serif">5</tspan></text>
    <text
       xml:space="preserve"
       style="font-style:normal;font-weight:normal;line-height:0%;font-family:sans-serif;letter-spacing:0px;word-spacing:0px;fill:#000000;fill-opacity:1;stroke:none"
       x="203.16458"
       y="150.14963"
       id="text4720"><tspan
         sodipodi:role="line"
         id="tspan4722"
         x="203.16458"
         y="150.14963"
         style="font-size:18px;line-height:1.25;font-family:sans-serif">6</tspan></text>
    <text
       xml:space="preserve"
       style="font-style:normal;font-weight:normal;line-height:0%;font-family:sans-serif;letter-spacing:0px;word-spacing:0px;fill:#000000;fill-opacity:1;stroke:none"
       x="339.73895"
       y="148.72105"
       id="text4724"><tspan
         sodipodi:role="line"
         id="tspan4726"
         x="339.73895"
         y="148.72105"
         style="font-size:18px;line-height:1.25;font-family:sans-serif">7</tspan></text>
    <text
       xml:space="preserve"
       style="font-style:normal;font-weight:normal;line-height:0%;font-family:sans-serif;letter-spacing:0px;word-spacing:0px;fill:#000000;fill-opacity:1;stroke:none"
       x="476.45398"
       y="150.14963"
       id="text4728"><tspan
         sodipodi:role="line"
         id="tspan4730"
         x="476.45398"
         y="150.14963"
         style="font-size:18px;line-height:1.25;font-family:sans-serif">8</tspan></text>
    <text
       xml:space="preserve"
       style="font-style:normal;font-weight:normal;line-height:0%;font-family:sans-serif;letter-spacing:0px;word-spacing:0px;fill:#000000;fill-opacity:1;stroke:none"
       x="206"
       y="212.36218"
       id="text4732"><tspan
         sodipodi:role="line"
         id="tspan4734"
         x="206"
         y="212.36218"
         style="font-size:18px;line-height:1.25;font-family:sans-serif">{1,2,3,4,5,7,8}, {6}</tspan></text>
    <path
       style="fill:none;stroke:#000000;stroke-width:0.99999994px;stroke-linecap:butt;stroke-linejoin:miter;stroke-opacity:1"
       d="m 89.98232,62.362183 96.46393,0"
       id="path4736"
       inkscape:connector-curvature="0" />
    <path
       style="fill:none;stroke:#000000;stroke-width:1px;stroke-linecap:butt;stroke-linejoin:miter;stroke-opacity:1"
       d="m 70,82.362183 0,39.999997"
       id="path4738"
       inkscape:connector-curvature="0" />
    <path
       style="fill:none;stroke:#000000;stroke-width:1px;stroke-linecap:butt;stroke-linejoin:miter;stroke-opacity:1"
       d="m 360,62.362183 100,0"
       id="path4740"
       inkscape:connector-curvature="0" />
    <path
       style="fill:none;stroke:#000000;stroke-width:1px;stroke-linecap:butt;stroke-linejoin:miter;stroke-opacity:1"
       d="M 460,72.362183 350,122.36218"
       id="path4742"
       inkscape:connector-curvature="0" />
    <path
       style="fill:none;stroke:#000000;stroke-width:1px;stroke-linecap:butt;stroke-linejoin:miter;stroke-opacity:1"
       d="m 480,122.36218 0,-39.999997"
       id="path4744"
       inkscape:connector-curvature="0" />
    <path
       style="fill:none;stroke:#000000;stroke-width:1px;stroke-linecap:butt;stroke-linejoin:miter;stroke-opacity:1"
       d="m 180.5,21.201458 90,0"
       id="path4746"
       inkscape:connector-curvature="0"
       transform="translate(49.5,41.160714)" />
  </g>
</svg>
